<?xml version="1.0" encoding="UTF-8"?>
<!DOCTYPE svg PUBLIC "-//W3C//DTD SVG 1.1//EN" "http://www.w3.org/Graphics/SVG/1.1/DTD/svg11.dtd">
<!-- Creator: CorelDRAW 2021.5 (Wersja próbna) -->
<svg xmlns="http://www.w3.org/2000/svg" xml:space="preserve" width="160.2mm" height="160.2mm" version="1.1" style="shape-rendering:geometricPrecision; text-rendering:geometricPrecision; image-rendering:optimizeQuality; fill-rule:evenodd; clip-rule:evenodd"
viewBox="0 0 16020 16020"
 xmlns:xlink="http://www.w3.org/1999/xlink"
 xmlns:xodm="http://www.corel.com/coreldraw/odm/2003">
 <defs>
  <style type="text/css">
   <![CDATA[
    .fil0 {fill:whitesmoke}
   ]]>
  </style>
 </defs>
 <g id="Warstwa_x0020_1">
  <metadata id="CorelCorpID_0Corel-Layer"/>
  <path id="chip" class="fil0" d="M6412.55 5506.88l3194.91 0c500.1,0 905.68,448.37 905.68,1001.25l-0.01 3003.75c0.01,552.87 -405.57,1001.24 -905.67,1001.24l-3194.91 0.01c-500.09,-0.01 -905.67,-448.38 -905.67,-1001.26l0 -3003.74c0,-552.88 405.58,-1001.25 905.68,-1001.25zm-1055.87 -3103.88l0 -1802.26c0,-330.41 -270.33,-600.74 -600.74,-600.74l-0.02 0c-330.41,0 -600.74,270.33 -600.74,600.74l0 1802.26 -150.19 0c-441.17,0 -841.82,180.05 -1131.88,470.12 -290.06,290.06 -470.12,690.71 -470.12,1131.88l0 170.3 -1802.25 0c-330.42,0 -600.75,270.33 -600.75,600.74l0 0.02c0,330.41 270.33,600.74 600.75,600.74l1802.25 0 0 130.07 0 500.62 0 337.18 -1802.25 0c-330.42,0 -600.75,270.33 -600.75,600.74l0 0.02c0,330.41 270.33,600.74 600.75,600.74l1802.25 0 0 964.44 0 3.42 -1802.25 0c-330.42,0 -600.75,270.33 -600.75,600.74l0 0.02c0,330.41 270.33,600.74 600.75,600.74l1802.25 0 0 296.95 0 500.62 0 170.3 -1802.25 0c-330.42,0 -600.75,270.33 -600.75,600.74l0 0.02c0,330.41 270.33,600.74 600.75,600.74l1802.25 0 0 130.07c0,441.17 180.05,841.82 470.12,1131.88 290.06,290.06 690.71,470.12 1131.88,470.12l150.19 0 0 1802.25c0,330.41 270.34,600.75 600.75,600.75 330.41,0 600.75,-270.34 600.75,-600.75l0 -1802.25 150.19 0 500.62 0 317.07 0 0 1802.26c0,330.41 270.33,600.74 600.74,600.74l0.02 0c330.41,0 600.74,-270.33 600.74,-600.74l0 -1802.26 967.87 0 0 1802.26c0,330.41 270.33,600.74 600.74,600.74l0.02 0c330.41,0 600.74,-270.33 600.74,-600.74l0 -1802.26 317.07 0 500.62 0 150.19 0 0 1802.26c0,330.41 270.33,600.74 600.74,600.74l0.02 0c330.41,0 600.74,-270.33 600.74,-600.74l0 -1802.26 150.19 0c441.17,0 841.82,-180.05 1131.88,-470.12 290.06,-290.06 470.12,-690.71 470.12,-1131.88l0 -150.19 1802.25 0c330.42,0 600.75,-270.33 600.75,-600.74l0 -0.02c0,-330.41 -270.33,-600.74 -600.75,-600.74l-1802.25 0 0 -150.19 0 -500.62 0 -317.07 1802.25 0c330.42,0 600.75,-270.33 600.75,-600.74l0 -0.02c0,-330.41 -270.33,-600.74 -600.75,-600.74l-1802.25 0 0 -967.87 1802.25 0c330.42,0 600.75,-270.33 600.75,-600.74l0 -0.02c0,-330.41 -270.33,-600.74 -600.75,-600.74l-1802.25 0 0 -317.07 0 -500.62 0 -150.19 1802.25 0c330.42,0 600.75,-270.33 600.75,-600.74l0 -0.02c0,-330.41 -270.33,-600.74 -600.75,-600.74l-1802.25 0 0 -150.19c0,-441.17 -180.05,-841.82 -470.12,-1131.88 -290.06,-290.06 -690.71,-470.12 -1131.88,-470.12l-150.19 0 0 -1802.26c0,-330.41 -270.33,-600.74 -600.74,-600.74l-0.02 0c-330.41,0 -600.74,270.33 -600.74,600.74l0 1802.26 -150.19 0 -500.62 0 -317.07 0 0 -1802.26c0,-330.41 -270.33,-600.74 -600.74,-600.74l-0.02 0c-330.41,0 -600.74,270.33 -600.74,600.74l0 1802.26 -967.87 0 0 -1802.26c0,-330.41 -270.33,-600.74 -600.74,-600.74l-0.02 0c-330.41,0 -600.74,270.33 -600.74,600.74l0 1802.26 -317.07 0 -500.62 0 -150.19 0zm6658.32 1201.5l-8010.01 0c-109.51,0 -209.51,45.25 -282.38,118.12 -72.87,72.87 -118.12,172.88 -118.12,282.38l0 8010.01c0,109.51 45.25,209.51 118.12,282.38 72.87,72.87 172.88,118.12 282.38,118.12l8010.01 0c109.51,0 209.51,-45.25 282.38,-118.12 72.87,-72.87 118.12,-172.88 118.12,-282.38l0 -8010.01c0,-109.51 -45.25,-209.51 -118.12,-282.38 -72.87,-72.87 -172.88,-118.12 -282.38,-118.12z"/>
 </g>
</svg>
